<svg fill="none" xmlns="http://www.w3.org/2000/svg" viewBox="0 0 145 130" aria-hidden="true" role="img"><path d="M39.31 102.665c21.296 0 38.56-13.988 38.56-31.243S60.607 40.18 39.31 40.18.749 54.167.749 71.422c0 17.255 17.264 31.243 38.56 31.243z" fill="url(#paint0_radial_11393_56126-uid-31)"></path><path d="M39.31 47.217l-30.82 2.11C3.563 53.973.748 61.15.748 71.424c0 8.303 1.83 14.355 4.926 18.999l36.309-2.534-2.674-40.671zm38.56 24.205c0 7.036-1.267 12.525-3.659 16.747-13.792-4.222-23.08-13.933-23.08-34.339 0-4.785.563-9.007 1.548-12.666C67.315 43.697 77.87 51.578 77.87 71.422z" fill="#746493"></path><path d="M50.427 101.963c1.69 4.926 5.208 9.288 10.133 11.681.704.422.422 1.548-.281 1.548-7.319 0-13.933-4.081-17.31-10.414-.704-1.267-1.97-2.111-3.519-2.111 3.66 0 7.459-.282 10.977-.704z" fill="url(#paint1_radial_11393_56126-uid-31)"></path><path d="M39.31 102.667c3.8 0 7.6-.141 10.978-.704.281.844.703 1.689.985 2.533-.845-1.97-9.289-.985-8.585.141-.563-1.267-1.97-1.97-3.378-1.97z" fill="url(#paint2_linear_11393_56126-uid-31)"></path><path d="M42.489 47.15L0 48.135l.949 40.94 42.488-.984-.948-40.94z" fill="#95DF00"></path><path d="M1.03 89.013l32.228-.703c-.422-12.103-10.273-21.814-22.517-21.814-3.659 0-7.177.845-10.133 2.392l.423 20.125z" fill="url(#paint3_radial_11393_56126-uid-31)"></path><path d="M19.466 85.636c0 .985.14 1.97.281 2.815l23.784-.563-.422-17.873c-2.111-.845-4.363-1.408-6.755-1.408-9.289.141-16.888 7.74-16.888 17.03z" fill="url(#paint4_radial_11393_56126-uid-31)"></path><path d="M34.665 74.801l-2.533-23.22a11.72 11.72 0 00-12.947-10.415c-4.222.422-7.74 3.096-9.289 6.755h2.252a10.238 10.238 0 017.318-4.785c5.348-.563 10.133 3.378 10.837 8.726l2.533 23.22c.281 2.956-1.83 5.49-4.644 5.77-2.956.282-5.489-1.829-5.77-4.643l-2.534-23.644c0-.562-.562-.844-1.125-.844s-.845.563-.845 1.126l2.533 23.643a7.13 7.13 0 007.881 6.333c3.941-.422 6.756-4.081 6.333-8.022z" fill="url(#paint5_linear_11393_56126-uid-31)"></path><path d="M5.675 60.727c.14 0 .14.141 0 0 .844.563 1.83.845 2.815.845.985 0 1.97-.282 2.814-.845 1.267-.844 1.97-2.252 1.97-3.8 0-2.673-2.11-4.784-4.644-4.784-2.533 0-4.785 2.11-4.785 4.644-.14 1.688.704 3.096 1.83 3.94z" fill="url(#paint6_radial_11393_56126-uid-31)"></path><path d="M99.262 88.025c25.26 0 45.738-16.57 45.738-37.012S124.522 14 99.262 14c-25.26 0-45.739 16.571-45.739 37.013 0 20.441 20.478 37.012 45.739 37.012z" fill="url(#paint7_radial_11393_56126-uid-31)"></path><path d="M86.174 87.32c-1.97 5.911-6.192 10.978-11.962 13.792-.844.422-.563 1.83.422 1.83 8.725 0 16.606-4.926 20.547-12.385.844-1.548 2.392-2.533 4.222-2.533-4.644.14-9.007-.14-13.229-.704z" fill="url(#paint8_radial_11393_56126-uid-31)"></path><path d="M99.262 88.165c-4.504 0-9.007-.282-13.088-.704-.282.985-.704 2.11-1.267 3.096.985-2.392 10.977-1.126 10.133.14.985-1.547 2.533-2.532 4.222-2.532z" fill="url(#paint9_linear_11393_56126-uid-31)"></path><path d="M90.396 52.281a4.745 4.745 0 01-4.785 4.785 4.745 4.745 0 01-4.785-4.785 4.745 4.745 0 014.785-4.785 4.745 4.745 0 014.785 4.785zm8.866-4.785a4.745 4.745 0 00-4.785 4.785 4.745 4.745 0 004.785 4.785 4.745 4.745 0 004.785-4.785 4.745 4.745 0 00-4.785-4.785zm13.792 0a4.745 4.745 0 00-4.785 4.785 4.745 4.745 0 004.785 4.785 4.745 4.745 0 004.785-4.785c0-2.674-2.252-4.785-4.785-4.785z" fill="url(#paint10_linear_11393_56126-uid-31)"></path><defs><radialGradient id="paint0_radial_11393_56126-uid-31" cx="0" cy="0" r="1" gradientUnits="userSpaceOnUse" gradientTransform="rotate(-17.759 209.364 -100.315) scale(51.1239 38.4718)"><stop offset=".77" stop-color="#BDA1E7"></stop><stop offset=".826" stop-color="#B89CE1"></stop><stop offset=".902" stop-color="#A98FCF"></stop><stop offset=".991" stop-color="#907AB3"></stop><stop offset="1" stop-color="#8D77AF"></stop></radialGradient><radialGradient id="paint1_radial_11393_56126-uid-31" cx="0" cy="0" r="1" gradientUnits="userSpaceOnUse" gradientTransform="rotate(141.084 9.866 61.163) scale(8.94615 14.272)"><stop stop-color="#8D77AF"></stop><stop offset=".294" stop-color="#907AB2"></stop><stop offset=".544" stop-color="#9981BD"></stop><stop offset=".776" stop-color="#A88ECE"></stop><stop offset=".998" stop-color="#BDA1E7"></stop><stop offset="1" stop-color="#BDA1E7"></stop></radialGradient><radialGradient id="paint3_radial_11393_56126-uid-31" cx="0" cy="0" r="1" gradientUnits="userSpaceOnUse" gradientTransform="translate(6.687 81.962) scale(20.6324)"><stop offset=".677" stop-color="#14A800"></stop><stop offset=".802" stop-color="#139300"></stop><stop offset="1" stop-color="#126B00"></stop></radialGradient><radialGradient id="paint4_radial_11393_56126-uid-31" cx="0" cy="0" r="1" gradientUnits="userSpaceOnUse" gradientTransform="matrix(15.81126 11.09454 -12.31954 17.55705 26.942 84.884)"><stop offset=".677" stop-color="#14A800"></stop><stop offset=".802" stop-color="#139300"></stop><stop offset="1" stop-color="#126B00"></stop></radialGradient><radialGradient id="paint6_radial_11393_56126-uid-31" cx="0" cy="0" r="1" gradientUnits="userSpaceOnUse" gradientTransform="translate(7.409 55.329) scale(5.64211)"><stop offset=".677" stop-color="#DEBE1A"></stop><stop offset=".753" stop-color="#D8A91A"></stop><stop offset=".907" stop-color="#C77419"></stop><stop offset="1" stop-color="#BC5118"></stop></radialGradient><radialGradient id="paint7_radial_11393_56126-uid-31" cx="0" cy="0" r="1" gradientUnits="userSpaceOnUse" gradientTransform="matrix(54.2365 0 0 50.5606 94.98 34.926)"><stop offset=".77" stop-color="#F2F7F2"></stop><stop offset=".855" stop-color="#ECF2EC"></stop><stop offset=".972" stop-color="#DAE4DA"></stop><stop offset="1" stop-color="#D5E0D5"></stop></radialGradient><radialGradient id="paint8_radial_11393_56126-uid-31" cx="0" cy="0" r="1" gradientUnits="userSpaceOnUse" gradientTransform="matrix(8.26638 6.67387 -14.66553 18.165 81.485 90.668)"><stop offset=".449" stop-color="#fff"></stop><stop offset=".594" stop-color="#FBFCFB"></stop><stop offset=".744" stop-color="#EEF3EE"></stop><stop offset=".895" stop-color="#DAE4DA"></stop><stop offset=".924" stop-color="#D5E0D5"></stop></radialGradient><linearGradient id="paint2_linear_11393_56126-uid-31" x1="45.36" y1="104.72" x2="45.36" y2="101.324" gradientUnits="userSpaceOnUse"><stop stop-color="#746493" stop-opacity="0"></stop><stop offset="1" stop-color="#746493"></stop></linearGradient><linearGradient id="paint5_linear_11393_56126-uid-31" x1="9.938" y1="61.925" x2="34.72" y2="61.925" gradientUnits="userSpaceOnUse"><stop stop-color="#D5E0D5"></stop><stop offset=".305" stop-color="#DBE4DB"></stop><stop offset="1" stop-color="#E4EBE4"></stop></linearGradient><linearGradient id="paint9_linear_11393_56126-uid-31" x1="92.153" y1="90.621" x2="92.153" y2="80.34" gradientUnits="userSpaceOnUse"><stop stop-color="#9AAA97" stop-opacity="0"></stop><stop offset="1" stop-color="#9AAA97"></stop></linearGradient><linearGradient id="paint10_linear_11393_56126-uid-31" x1="82.772" y1="58.304" x2="115.892" y2="46.249" gradientUnits="userSpaceOnUse"><stop stop-color="#F66DBC"></stop><stop offset="1" stop-color="#14A800"></stop></linearGradient></defs></svg>